<svg id="Layer_1" data-name="Layer 1" xmlns="http://www.w3.org/2000/svg" xmlns:xlink="http://www.w3.org/1999/xlink" viewBox="0 0 800 800"><defs><style>.cls-1{fill:#ffce63;}.cls-2{fill:url(#linear-gradient);}</style><linearGradient id="linear-gradient" x1="232.37" y1="324.97" x2="271.06" y2="326.74" gradientUnits="userSpaceOnUse"><stop offset="0.43" stop-color="#fff" stop-opacity="0"/><stop offset="1"/></linearGradient></defs><title>glow</title><path class="cls-1" d="M246.17,432.11a33,33,0,0,1-43.65,0H167.58a61.92,61.92,0,0,0,113.5,0Z"/><path class="cls-1" d="M224.34,291.19a61.91,61.91,0,1,0,61.9,61.92A61.92,61.92,0,0,0,224.34,291.19Zm0,94.93a33,33,0,1,1,33-33A33,33,0,0,1,224.34,386.12Z"/><path class="cls-1" d="M299.61,294.35h29V432.11h-29Z"/><path class="cls-1" d="M338.78,382.16c0-30.07,23.21-51.42,55-51.42s54.77,21.35,54.77,51.42-23,51.43-54.77,51.43S338.78,412.24,338.78,382.16Zm80.39,0c0-17.26-10.95-27.66-25.43-27.66s-25.63,10.4-25.63,27.66,11.14,27.67,25.63,27.67S419.17,399.43,419.17,382.16Z"/><path class="cls-1" d="M616.15,332.22,580,432.11H552.1l-22.47-62-23.21,62H478.58l-36-99.89h27.29l23.58,67.58,24.51-67.58h24.5l23.77,67.58,24.32-67.58Z"/><polygon class="cls-2" points="257.35 353.11 254.41 298.98 263.99 305.71 257.35 353.11"/><path class="cls-1" d="M285.79,289.13v71.41H264.85a63.14,63.14,0,0,0-7.5-5.58V289.13Z"/></svg>